<?xml version="1.0" encoding="utf-8"?>
<!-- Generator: Adobe Illustrator 15.1.0, SVG Export Plug-In . SVG Version: 6.00 Build 0)  -->
<!DOCTYPE svg PUBLIC "-//W3C//DTD SVG 1.1//EN" "http://www.w3.org/Graphics/SVG/1.1/DTD/svg11.dtd">
<svg version="1.1" id="Layer_1" xmlns="http://www.w3.org/2000/svg" xmlns:xlink="http://www.w3.org/1999/xlink" x="0px" y="0px"
	 width="252.923px" height="143.846px" viewBox="0 0 252.923 143.846" enable-background="new 0 0 252.923 143.846"
	 xml:space="preserve">
<g>
	<g>
		<rect x="4.923" y="4.711" fill="#C4E8F1" width="243.385" height="134.827"/>
		
			<rect x="4.923" y="4.711" fill="none" stroke="#010101" stroke-width="2" stroke-miterlimit="10" width="243.385" height="134.827"/>
		<rect x="4.923" y="4.711" fill="#C4E8F1" width="243.385" height="134.827"/>
		<rect x="4.923" y="4.711" fill="#C4E8F1" width="243.385" height="134.827"/>
	</g>
	<g>
		<path fill="#010101" d="M14.993,12.048h1.5l2.88,6.66h0.024l2.904-6.66h1.464v8.496h-1.008v-7.128h-0.024l-3.048,7.128h-0.612
			l-3.048-7.128h-0.024v7.128h-1.008V12.048z"/>
		<path fill="#010101" d="M30.725,19.524c-0.336,0.432-0.704,0.734-1.104,0.906c-0.4,0.172-0.864,0.258-1.392,0.258
			c-0.44,0-0.836-0.078-1.188-0.234c-0.353-0.156-0.65-0.366-0.894-0.63c-0.244-0.264-0.432-0.576-0.564-0.936
			c-0.132-0.36-0.198-0.744-0.198-1.152c0-0.432,0.072-0.83,0.216-1.194c0.144-0.364,0.344-0.676,0.6-0.936
			c0.256-0.26,0.56-0.462,0.912-0.606s0.736-0.216,1.152-0.216c0.392,0,0.752,0.066,1.08,0.198s0.61,0.324,0.846,0.576
			c0.236,0.252,0.418,0.56,0.546,0.924c0.128,0.364,0.192,0.778,0.192,1.242v0.3h-4.536c0.016,0.24,0.074,0.47,0.174,0.69
			c0.1,0.22,0.23,0.412,0.39,0.576c0.16,0.164,0.348,0.294,0.564,0.39c0.216,0.096,0.452,0.144,0.708,0.144
			c0.408,0,0.751-0.072,1.032-0.216c0.28-0.144,0.532-0.356,0.756-0.636L30.725,19.524z M29.921,17.232
			c-0.016-0.48-0.172-0.864-0.468-1.152s-0.704-0.432-1.224-0.432c-0.521,0-0.94,0.144-1.26,0.432s-0.512,0.672-0.576,1.152H29.921z
			"/>
		<path fill="#010101" d="M32.381,16.26c0-0.256-0.008-0.496-0.024-0.72s-0.024-0.428-0.024-0.612h0.888
			c0,0.152,0.004,0.304,0.012,0.456c0.008,0.152,0.012,0.308,0.012,0.468h0.024c0.064-0.136,0.154-0.268,0.27-0.396
			c0.116-0.128,0.254-0.242,0.414-0.342c0.16-0.1,0.34-0.18,0.54-0.24c0.2-0.06,0.416-0.09,0.648-0.09
			c0.304,0,0.558,0.038,0.762,0.114c0.204,0.076,0.374,0.168,0.51,0.276s0.242,0.224,0.318,0.348
			c0.076,0.124,0.138,0.234,0.186,0.33c0.208-0.336,0.448-0.598,0.72-0.786s0.624-0.282,1.056-0.282c0.4,0,0.736,0.054,1.008,0.162
			s0.492,0.264,0.66,0.468s0.288,0.452,0.36,0.744c0.072,0.292,0.108,0.618,0.108,0.978v3.408h-0.936v-3.36
			c0-0.192-0.02-0.38-0.06-0.564s-0.112-0.348-0.216-0.492s-0.244-0.26-0.42-0.348c-0.176-0.088-0.4-0.132-0.672-0.132
			c-0.2,0-0.388,0.04-0.564,0.12c-0.176,0.08-0.33,0.192-0.462,0.336c-0.132,0.144-0.236,0.318-0.312,0.522s-0.114,0.43-0.114,0.678
			v3.24h-0.936v-3.18c0-0.624-0.084-1.066-0.252-1.326c-0.168-0.26-0.444-0.39-0.828-0.39c-0.304,0-0.566,0.052-0.786,0.156
			c-0.22,0.104-0.4,0.252-0.54,0.444c-0.14,0.192-0.244,0.42-0.312,0.684c-0.068,0.264-0.102,0.556-0.102,0.876v2.736h-0.936V16.26z
			"/>
		<path fill="#010101" d="M42.281,17.736c0-0.44,0.076-0.84,0.228-1.2c0.152-0.36,0.36-0.67,0.624-0.93
			c0.264-0.26,0.58-0.462,0.948-0.606c0.368-0.144,0.768-0.216,1.2-0.216s0.832,0.072,1.2,0.216
			c0.368,0.144,0.684,0.346,0.948,0.606c0.264,0.26,0.472,0.57,0.624,0.93c0.152,0.36,0.228,0.76,0.228,1.2s-0.076,0.84-0.228,1.2
			s-0.36,0.67-0.624,0.93c-0.264,0.26-0.58,0.462-0.948,0.606c-0.368,0.144-0.768,0.216-1.2,0.216s-0.832-0.072-1.2-0.216
			c-0.368-0.144-0.684-0.346-0.948-0.606c-0.264-0.26-0.472-0.57-0.624-0.93S42.281,18.176,42.281,17.736z M43.289,17.736
			c0,0.296,0.046,0.57,0.138,0.822s0.226,0.472,0.402,0.66c0.176,0.188,0.386,0.336,0.63,0.444c0.244,0.108,0.518,0.162,0.822,0.162
			s0.578-0.054,0.822-0.162c0.244-0.108,0.454-0.256,0.63-0.444c0.176-0.188,0.31-0.408,0.402-0.66s0.138-0.526,0.138-0.822
			c0-0.296-0.046-0.57-0.138-0.822s-0.226-0.472-0.402-0.66c-0.176-0.188-0.386-0.336-0.63-0.444
			c-0.244-0.108-0.518-0.162-0.822-0.162s-0.578,0.054-0.822,0.162c-0.244,0.108-0.454,0.256-0.63,0.444
			c-0.176,0.188-0.31,0.408-0.402,0.66S43.289,17.44,43.289,17.736z"/>
		<path fill="#010101" d="M49.733,16.26c0-0.256-0.008-0.496-0.024-0.72s-0.024-0.428-0.024-0.612h0.888
			c0,0.152,0.004,0.304,0.012,0.456c0.008,0.152,0.012,0.308,0.012,0.468h0.024c0.064-0.136,0.154-0.268,0.27-0.396
			c0.116-0.128,0.254-0.242,0.414-0.342c0.16-0.1,0.34-0.18,0.54-0.24c0.2-0.06,0.416-0.09,0.648-0.09
			c0.064,0,0.128,0.004,0.192,0.012c0.064,0.008,0.128,0.024,0.192,0.048l-0.06,0.948c-0.16-0.048-0.328-0.072-0.504-0.072
			c-0.576,0-0.994,0.186-1.254,0.558s-0.39,0.882-0.39,1.53v2.736h-0.936V16.26z"/>
		<path fill="#010101" d="M56.021,21.829c-0.096,0.24-0.194,0.458-0.294,0.654c-0.1,0.196-0.22,0.364-0.36,0.504
			s-0.308,0.248-0.504,0.324c-0.196,0.076-0.434,0.114-0.714,0.114c-0.136,0-0.278-0.008-0.426-0.024s-0.286-0.056-0.414-0.12
			l0.12-0.816c0.096,0.04,0.196,0.066,0.3,0.078c0.104,0.012,0.224,0.018,0.36,0.018c0.304,0,0.528-0.084,0.672-0.252
			s0.268-0.392,0.372-0.672l0.384-1.056l-2.328-5.652h1.092l1.74,4.404h0.024l1.668-4.404h1.02L56.021,21.829z"/>
	</g>
</g>
<g>
	<rect x="61.309" y="92.809" fill="#FFF5CB" stroke="#000000" stroke-miterlimit="10" width="48.923" height="42.153"/>
	<g>
		<path d="M65.152,104.954v-0.928c0.779,0.374,1.487,0.562,2.123,0.562c0.266,0,0.521-0.052,0.765-0.154s0.428-0.25,0.553-0.442
			s0.188-0.4,0.188-0.626c0-0.264-0.086-0.511-0.258-0.74c-0.172-0.23-0.495-0.483-0.968-0.761l-0.495-0.286l-0.503-0.291
			c-0.888-0.524-1.332-1.176-1.332-1.955c0-0.57,0.198-1.051,0.593-1.44c0.396-0.389,1.013-0.584,1.853-0.584
			c0.541,0,1.063,0.076,1.567,0.229v0.845c-0.556-0.212-1.097-0.317-1.624-0.317c-0.419,0-0.758,0.111-1.016,0.333
			s-0.388,0.489-0.388,0.802c0,0.311,0.099,0.568,0.296,0.773s0.451,0.395,0.758,0.567l0.385,0.231l0.475,0.285l0.391,0.235
			c0.833,0.509,1.249,1.146,1.249,1.915c0,0.586-0.213,1.088-0.639,1.508c-0.426,0.42-1.109,0.63-2.048,0.63
			c-0.299,0-0.584-0.025-0.856-0.075C65.951,105.219,65.594,105.113,65.152,104.954z"/>
		<path d="M75.704,104.896c-0.426,0.179-0.736,0.286-0.928,0.319c-0.192,0.035-0.377,0.052-0.557,0.052
			c-0.381,0-0.729-0.073-1.045-0.22s-0.554-0.363-0.715-0.649s-0.242-0.729-0.242-1.328v-2.197h-1.362v-0.757h1.362v-2.197h0.908
			v2.197h2.427v0.757h-2.427v2.183c0,0.439,0.052,0.75,0.156,0.93c0.104,0.182,0.243,0.313,0.417,0.398s0.38,0.127,0.618,0.127
			c0.439,0,0.902-0.139,1.387-0.415V104.896z"/>
		<path d="M81.631,99.661v5.454h-0.908v-1.196c-0.293,0.449-0.619,0.786-0.977,1.011s-0.716,0.337-1.074,0.337
			c-0.319,0-0.611-0.085-0.876-0.257c-0.265-0.17-0.45-0.395-0.554-0.674c-0.104-0.277-0.156-0.82-0.156-1.628v-3.047h0.908v3.159
			c0,0.524,0.025,0.87,0.076,1.037c0.05,0.168,0.143,0.306,0.278,0.413s0.281,0.161,0.437,0.161c0.319,0,0.662-0.15,1.028-0.451
			c0.366-0.302,0.67-0.682,0.911-1.141v-3.179H81.631z"/>
		<path d="M86.792,103.889c-0.277,0.456-0.61,0.8-1,1.031c-0.389,0.231-0.747,0.347-1.073,0.347c-0.457,0-0.866-0.197-1.23-0.591
			c-0.363-0.394-0.545-0.991-0.545-1.792c0-0.632,0.121-1.195,0.362-1.692c0.241-0.496,0.564-0.889,0.968-1.176
			c0.404-0.289,0.905-0.433,1.501-0.433c0.173,0,0.434,0.018,0.782,0.054c0.052,0.007,0.13,0.015,0.235,0.024v-2.427h0.908v7.881
			h-0.908V103.889z M86.792,102.809v-2.342c-0.323-0.085-0.623-0.127-0.9-0.127c-0.561,0-1.028,0.217-1.401,0.65
			s-0.56,1.023-0.56,1.77c0,0.541,0.102,0.949,0.306,1.225s0.436,0.413,0.697,0.413c0.284,0,0.597-0.144,0.939-0.431
			C86.215,103.681,86.522,103.294,86.792,102.809z"/>
		<path d="M93.682,104.752c-0.726,0.343-1.413,0.515-2.061,0.515c-0.492,0-0.931-0.122-1.318-0.366
			c-0.387-0.243-0.697-0.593-0.93-1.046c-0.233-0.454-0.349-0.939-0.349-1.456c0-0.498,0.111-0.977,0.332-1.435
			c0.221-0.459,0.531-0.815,0.928-1.071c0.397-0.255,0.84-0.383,1.328-0.383c0.648,0,1.168,0.23,1.56,0.692
			c0.392,0.461,0.588,1.173,0.588,2.135v0.195H90c0,0.379,0.079,0.725,0.237,1.038c0.158,0.312,0.365,0.548,0.623,0.704
			c0.257,0.157,0.55,0.235,0.879,0.235c0.586,0,1.234-0.195,1.943-0.587V104.752z M90.054,101.854h2.72v-0.132
			c0-0.444-0.109-0.798-0.327-1.061s-0.509-0.395-0.874-0.395c-0.368,0-0.686,0.134-0.955,0.401S90.162,101.331,90.054,101.854z"/>
		<path d="M95.147,105.115v-5.454h0.908v1.191c0.26-0.42,0.575-0.749,0.942-0.986s0.735-0.356,1.104-0.356
			c0.322,0,0.615,0.086,0.879,0.256c0.264,0.172,0.448,0.396,0.555,0.672c0.105,0.276,0.158,0.82,0.158,1.631v3.047h-0.908v-3.159
			c0-0.524-0.025-0.87-0.076-1.038c-0.05-0.167-0.143-0.305-0.277-0.412c-0.136-0.107-0.283-0.161-0.442-0.161
			c-0.319,0-0.662,0.151-1.028,0.454s-0.668,0.682-0.906,1.138v3.179H95.147z"/>
		<path d="M105.708,104.896c-0.427,0.179-0.735,0.286-0.928,0.319c-0.192,0.035-0.378,0.052-0.557,0.052
			c-0.381,0-0.729-0.073-1.045-0.22s-0.554-0.363-0.716-0.649c-0.16-0.286-0.241-0.729-0.241-1.328v-2.197h-1.362v-0.757h1.362
			v-2.197h0.908v2.197h2.427v0.757h-2.427v2.183c0,0.439,0.052,0.75,0.156,0.93c0.104,0.182,0.243,0.313,0.417,0.398
			c0.175,0.085,0.381,0.127,0.618,0.127c0.439,0,0.901-0.139,1.387-0.415V104.896z"/>
	</g>
</g>
<g>
	<rect x="39.154" y="33.269" fill="#FFF5CB" stroke="#000000" stroke-miterlimit="10" width="48.923" height="42.153"/>
	<g>
		<path d="M42.998,45.415v-0.928c0.779,0.374,1.487,0.562,2.123,0.562c0.266,0,0.521-0.052,0.765-0.154s0.428-0.25,0.553-0.442
			s0.188-0.4,0.188-0.626c0-0.264-0.086-0.511-0.258-0.74c-0.172-0.23-0.495-0.483-0.968-0.761l-0.495-0.286l-0.503-0.291
			c-0.888-0.524-1.332-1.176-1.332-1.955c0-0.57,0.198-1.051,0.593-1.44c0.396-0.389,1.013-0.584,1.853-0.584
			c0.541,0,1.063,0.076,1.567,0.229v0.845c-0.556-0.212-1.097-0.317-1.624-0.317c-0.419,0-0.758,0.111-1.016,0.333
			s-0.388,0.489-0.388,0.802c0,0.311,0.099,0.568,0.296,0.773s0.451,0.395,0.758,0.567l0.385,0.231l0.475,0.285l0.391,0.235
			c0.833,0.509,1.249,1.146,1.249,1.915c0,0.586-0.213,1.088-0.639,1.508c-0.426,0.42-1.109,0.63-2.048,0.63
			c-0.299,0-0.584-0.025-0.856-0.075C43.797,45.68,43.44,45.574,42.998,45.415z"/>
		<path d="M53.55,45.356c-0.426,0.179-0.736,0.286-0.928,0.319c-0.192,0.035-0.377,0.052-0.557,0.052
			c-0.381,0-0.729-0.073-1.045-0.22s-0.554-0.363-0.715-0.649s-0.242-0.729-0.242-1.328v-2.197h-1.362v-0.757h1.362v-2.197h0.908
			v2.197h2.427v0.757h-2.427v2.183c0,0.439,0.052,0.75,0.156,0.93c0.104,0.182,0.243,0.313,0.417,0.398s0.38,0.127,0.618,0.127
			c0.439,0,0.902-0.139,1.387-0.415V45.356z"/>
		<path d="M59.478,40.122v5.454h-0.908V44.38c-0.293,0.449-0.619,0.786-0.977,1.011s-0.716,0.337-1.074,0.337
			c-0.319,0-0.611-0.085-0.876-0.257c-0.265-0.17-0.45-0.395-0.554-0.674c-0.104-0.277-0.156-0.82-0.156-1.628v-3.047h0.908v3.159
			c0,0.524,0.025,0.87,0.076,1.037c0.05,0.168,0.143,0.306,0.278,0.413s0.281,0.161,0.437,0.161c0.319,0,0.662-0.15,1.028-0.451
			c0.366-0.302,0.67-0.682,0.911-1.141v-3.179H59.478z"/>
		<path d="M64.639,44.35c-0.277,0.456-0.61,0.8-1,1.031c-0.389,0.231-0.747,0.347-1.073,0.347c-0.457,0-0.866-0.197-1.23-0.591
			c-0.363-0.394-0.545-0.991-0.545-1.792c0-0.632,0.121-1.195,0.362-1.692c0.241-0.496,0.564-0.889,0.968-1.176
			c0.404-0.289,0.905-0.433,1.501-0.433c0.173,0,0.434,0.018,0.782,0.054c0.052,0.007,0.13,0.015,0.235,0.024v-2.427h0.908v7.881
			h-0.908V44.35z M64.639,43.27v-2.342c-0.323-0.085-0.623-0.127-0.9-0.127c-0.561,0-1.028,0.217-1.401,0.65s-0.56,1.023-0.56,1.77
			c0,0.541,0.102,0.949,0.306,1.225s0.436,0.413,0.697,0.413c0.284,0,0.597-0.144,0.939-0.431
			C64.062,44.142,64.368,43.755,64.639,43.27z"/>
		<path d="M71.528,45.213c-0.726,0.343-1.413,0.515-2.061,0.515c-0.492,0-0.931-0.122-1.318-0.366
			c-0.387-0.243-0.697-0.593-0.93-1.046c-0.233-0.454-0.349-0.939-0.349-1.456c0-0.498,0.111-0.977,0.332-1.435
			c0.221-0.459,0.531-0.815,0.928-1.071c0.397-0.255,0.84-0.383,1.328-0.383c0.648,0,1.168,0.23,1.56,0.692
			c0.392,0.461,0.588,1.173,0.588,2.135v0.195h-3.76c0,0.379,0.079,0.725,0.237,1.038c0.158,0.312,0.365,0.548,0.623,0.704
			c0.257,0.157,0.55,0.235,0.879,0.235c0.586,0,1.234-0.195,1.943-0.587V45.213z M67.9,42.314h2.72v-0.132
			c0-0.444-0.109-0.798-0.327-1.061s-0.509-0.395-0.874-0.395c-0.368,0-0.686,0.134-0.955,0.401S68.008,41.792,67.9,42.314z"/>
		<path d="M72.993,45.576v-5.454h0.908v1.191c0.26-0.42,0.575-0.749,0.942-0.986s0.735-0.356,1.104-0.356
			c0.322,0,0.615,0.086,0.879,0.256c0.264,0.172,0.448,0.396,0.555,0.672c0.105,0.276,0.158,0.82,0.158,1.631v3.047h-0.908v-3.159
			c0-0.524-0.025-0.87-0.076-1.038c-0.05-0.167-0.143-0.305-0.277-0.412c-0.136-0.107-0.283-0.161-0.442-0.161
			c-0.319,0-0.662,0.151-1.028,0.454s-0.668,0.682-0.906,1.138v3.179H72.993z"/>
		<path d="M83.555,45.356c-0.427,0.179-0.735,0.286-0.928,0.319c-0.192,0.035-0.378,0.052-0.557,0.052
			c-0.381,0-0.729-0.073-1.045-0.22s-0.554-0.363-0.716-0.649c-0.16-0.286-0.241-0.729-0.241-1.328v-2.197h-1.362v-0.757h1.362
			v-2.197h0.908v2.197h2.427v0.757h-2.427v2.183c0,0.439,0.052,0.75,0.156,0.93c0.104,0.182,0.243,0.313,0.417,0.398
			c0.175,0.085,0.381,0.127,0.618,0.127c0.439,0,0.901-0.139,1.387-0.415V45.356z"/>
	</g>
</g>
<g>
	<g>
		<line fill="none" stroke="#F15A29" stroke-miterlimit="10" x1="88.077" y1="58" x2="91.011" y2="58.626"/>
		<polyline fill="none" stroke="#F15A29" stroke-miterlimit="10" stroke-dasharray="5.7971,3.8647" points="94.791,59.433 
			129.885,66.923 159.701,66.923 		"/>
		<line fill="none" stroke="#F15A29" stroke-miterlimit="10" x1="161.633" y1="66.923" x2="164.633" y2="66.923"/>
		<g>
			<polygon fill="#F15A29" points="171.693,66.923 161.744,70.988 164.105,66.923 161.744,62.858 			"/>
		</g>
	</g>
</g>
<g>
	<g>
		<line fill="none" stroke="#F15A29" stroke-miterlimit="10" x1="110.231" y1="105.115" x2="111.966" y2="102.668"/>
		
			<line fill="none" stroke="#F15A29" stroke-miterlimit="10" stroke-dasharray="6.9972,4.6648" x1="114.664" y1="98.861" x2="126.802" y2="81.735"/>
		<polyline fill="none" stroke="#F15A29" stroke-miterlimit="10" points="128.15,79.832 129.885,77.385 132.885,77.385 		"/>
		
			<line fill="none" stroke="#F15A29" stroke-miterlimit="10" stroke-dasharray="5.0731,3.3821" x1="136.267" y1="77.385" x2="159.941" y2="77.385"/>
		<line fill="none" stroke="#F15A29" stroke-miterlimit="10" x1="161.633" y1="77.385" x2="164.633" y2="77.385"/>
		<g>
			<polygon fill="#F15A29" points="171.693,77.385 161.744,81.45 164.105,77.385 161.744,73.32 			"/>
		</g>
	</g>
</g>
<g>
	<path fill="#F15A29" d="M106.516,72.315c0-0.33,0.058-0.63,0.172-0.9c0.113-0.27,0.27-0.502,0.468-0.698
		c0.197-0.195,0.435-0.346,0.711-0.455c0.275-0.108,0.576-0.162,0.899-0.162c0.324,0,0.624,0.054,0.9,0.162
		c0.276,0.108,0.513,0.26,0.711,0.455c0.198,0.195,0.354,0.428,0.468,0.698c0.114,0.27,0.171,0.57,0.171,0.9s-0.057,0.63-0.171,0.9
		c-0.113,0.27-0.27,0.502-0.468,0.697s-0.435,0.347-0.711,0.455c-0.276,0.107-0.576,0.162-0.9,0.162
		c-0.323,0-0.624-0.055-0.899-0.162c-0.276-0.108-0.514-0.26-0.711-0.455c-0.198-0.195-0.354-0.428-0.468-0.697
		C106.573,72.945,106.516,72.645,106.516,72.315z M107.272,72.315c0,0.222,0.034,0.427,0.104,0.617
		c0.068,0.189,0.169,0.354,0.301,0.494c0.132,0.142,0.29,0.252,0.473,0.334c0.183,0.08,0.389,0.121,0.616,0.121
		c0.229,0,0.434-0.041,0.617-0.121c0.183-0.082,0.34-0.192,0.473-0.334c0.132-0.141,0.232-0.305,0.301-0.494
		c0.069-0.189,0.104-0.395,0.104-0.617s-0.034-0.428-0.104-0.617c-0.068-0.189-0.169-0.354-0.301-0.495
		c-0.133-0.141-0.29-0.252-0.473-0.333c-0.184-0.081-0.389-0.122-0.617-0.122c-0.228,0-0.434,0.041-0.616,0.122
		c-0.183,0.081-0.341,0.192-0.473,0.333c-0.132,0.141-0.232,0.306-0.301,0.495C107.307,71.887,107.272,72.093,107.272,72.315z"/>
	<path fill="#F15A29" d="M116.623,74.421h-0.693l-1.197-3.24h-0.018l-1.062,3.24h-0.72l-1.368-4.212h0.774l0.963,3.24h0.018
		l1.09-3.24h0.737l1.107,3.24h0.018l0.954-3.24h0.756L116.623,74.421z"/>
	<path fill="#F15A29" d="M118.774,71.208c0-0.192-0.006-0.372-0.019-0.54c-0.012-0.168-0.018-0.321-0.018-0.459h0.666
		c0,0.114,0.003,0.228,0.009,0.342c0.006,0.114,0.009,0.231,0.009,0.351h0.019c0.048-0.102,0.115-0.201,0.202-0.297
		s0.19-0.182,0.311-0.256c0.12-0.075,0.255-0.135,0.405-0.18c0.149-0.045,0.312-0.067,0.485-0.067c0.276,0,0.515,0.042,0.716,0.126
		s0.367,0.201,0.5,0.351c0.132,0.15,0.229,0.332,0.292,0.544c0.063,0.213,0.095,0.445,0.095,0.697v2.601h-0.702v-2.529
		c0-0.354-0.078-0.633-0.234-0.837c-0.155-0.204-0.398-0.306-0.729-0.306c-0.229,0-0.425,0.039-0.59,0.117
		c-0.165,0.078-0.3,0.189-0.404,0.333c-0.105,0.144-0.184,0.315-0.234,0.513c-0.051,0.198-0.076,0.417-0.076,0.657v2.052h-0.702
		V71.208z"/>
	<path fill="#F15A29" d="M128.584,70.803h-1.242v2.106c0,0.138,0.003,0.265,0.009,0.382s0.03,0.219,0.072,0.307
		c0.042,0.087,0.105,0.156,0.189,0.207s0.204,0.076,0.359,0.076c0.103,0,0.207-0.012,0.315-0.036c0.107-0.024,0.21-0.06,0.306-0.108
		l0.027,0.64c-0.12,0.054-0.254,0.093-0.4,0.116c-0.147,0.024-0.287,0.037-0.419,0.037c-0.252,0-0.453-0.033-0.603-0.1
		c-0.15-0.066-0.268-0.158-0.352-0.279c-0.084-0.119-0.14-0.268-0.166-0.445c-0.027-0.177-0.041-0.373-0.041-0.59v-2.312h-0.918
		v-0.594h0.918v-1.197h0.702v1.197h1.242V70.803z"/>
	<path fill="#F15A29" d="M129.205,72.315c0-0.33,0.057-0.63,0.171-0.9s0.27-0.502,0.468-0.698c0.198-0.195,0.436-0.346,0.711-0.455
		c0.276-0.108,0.576-0.162,0.9-0.162s0.624,0.054,0.9,0.162c0.275,0.108,0.513,0.26,0.711,0.455
		c0.197,0.195,0.354,0.428,0.468,0.698c0.113,0.27,0.171,0.57,0.171,0.9s-0.058,0.63-0.171,0.9c-0.114,0.27-0.271,0.502-0.468,0.697
		c-0.198,0.195-0.436,0.347-0.711,0.455c-0.276,0.107-0.576,0.162-0.9,0.162s-0.624-0.055-0.9-0.162
		c-0.275-0.108-0.513-0.26-0.711-0.455s-0.354-0.428-0.468-0.697C129.262,72.945,129.205,72.645,129.205,72.315z M129.961,72.315
		c0,0.222,0.034,0.427,0.104,0.617s0.17,0.354,0.302,0.494c0.132,0.142,0.289,0.252,0.473,0.334c0.183,0.08,0.388,0.121,0.616,0.121
		c0.228,0,0.434-0.041,0.616-0.121c0.184-0.082,0.341-0.192,0.473-0.334c0.132-0.141,0.232-0.305,0.302-0.494
		c0.068-0.189,0.104-0.395,0.104-0.617s-0.035-0.428-0.104-0.617c-0.069-0.189-0.17-0.354-0.302-0.495
		c-0.132-0.141-0.289-0.252-0.473-0.333c-0.183-0.081-0.389-0.122-0.616-0.122c-0.229,0-0.434,0.041-0.616,0.122
		c-0.184,0.081-0.341,0.192-0.473,0.333c-0.132,0.141-0.232,0.306-0.302,0.495S129.961,72.093,129.961,72.315z"/>
	<path fill="#F15A29" d="M138.997,74.232c0,0.768-0.197,1.352-0.59,1.75c-0.394,0.398-0.962,0.599-1.705,0.599
		c-0.414,0-0.788-0.06-1.121-0.181c-0.333-0.119-0.649-0.326-0.949-0.621l0.504-0.575c0.222,0.239,0.457,0.421,0.706,0.544
		s0.536,0.186,0.86,0.186c0.312,0,0.571-0.047,0.778-0.141c0.207-0.093,0.37-0.219,0.49-0.377c0.12-0.16,0.204-0.342,0.252-0.545
		c0.048-0.204,0.072-0.418,0.072-0.639v-0.541h-0.019c-0.168,0.271-0.387,0.469-0.656,0.595c-0.271,0.126-0.547,0.188-0.828,0.188
		c-0.33,0-0.634-0.054-0.909-0.162c-0.276-0.107-0.513-0.258-0.711-0.449c-0.198-0.192-0.352-0.42-0.459-0.685
		c-0.108-0.264-0.162-0.552-0.162-0.864c0-0.342,0.054-0.651,0.162-0.927c0.107-0.276,0.259-0.508,0.454-0.697
		s0.431-0.334,0.707-0.437c0.275-0.102,0.582-0.153,0.918-0.153c0.144,0,0.288,0.017,0.432,0.049
		c0.145,0.033,0.283,0.084,0.419,0.153c0.135,0.069,0.256,0.156,0.364,0.261c0.107,0.105,0.198,0.227,0.27,0.364h0.019v-0.72h0.702
		V74.232z M135.307,72.315c0,0.216,0.039,0.416,0.117,0.599s0.185,0.342,0.319,0.477s0.293,0.241,0.473,0.319
		s0.372,0.116,0.576,0.116c0.239,0,0.453-0.041,0.639-0.125s0.344-0.197,0.473-0.338s0.227-0.303,0.292-0.486
		c0.066-0.183,0.1-0.376,0.1-0.581c0-0.228-0.036-0.437-0.108-0.625s-0.174-0.353-0.306-0.491c-0.132-0.138-0.291-0.244-0.478-0.319
		c-0.186-0.075-0.39-0.112-0.611-0.112c-0.223,0-0.425,0.041-0.607,0.122c-0.184,0.081-0.34,0.192-0.469,0.333
		c-0.129,0.141-0.229,0.306-0.301,0.495C135.343,71.887,135.307,72.093,135.307,72.315z"/>
	<path fill="#F15A29" d="M144.055,73.656c-0.252,0.324-0.528,0.551-0.828,0.68s-0.647,0.193-1.044,0.193
		c-0.33,0-0.627-0.059-0.891-0.176c-0.265-0.117-0.488-0.274-0.671-0.473c-0.183-0.197-0.324-0.432-0.423-0.702
		c-0.099-0.27-0.148-0.558-0.148-0.864c0-0.324,0.054-0.623,0.162-0.896c0.107-0.273,0.258-0.507,0.45-0.702
		c0.191-0.195,0.42-0.346,0.684-0.455c0.264-0.108,0.552-0.162,0.864-0.162c0.294,0,0.563,0.049,0.81,0.148s0.458,0.243,0.635,0.432
		c0.177,0.189,0.313,0.42,0.409,0.693s0.145,0.583,0.145,0.931v0.225h-3.402c0.012,0.18,0.056,0.353,0.131,0.518
		c0.074,0.164,0.172,0.309,0.292,0.432s0.261,0.221,0.423,0.293c0.162,0.071,0.339,0.107,0.531,0.107
		c0.306,0,0.564-0.055,0.774-0.162s0.398-0.267,0.566-0.477L144.055,73.656z M143.452,71.937c-0.013-0.36-0.13-0.648-0.352-0.864
		c-0.222-0.216-0.528-0.324-0.918-0.324s-0.705,0.108-0.945,0.324c-0.239,0.216-0.384,0.504-0.432,0.864H143.452z"/>
	<path fill="#F15A29" d="M147.601,70.803h-1.242v2.106c0,0.138,0.003,0.265,0.009,0.382s0.03,0.219,0.072,0.307
		c0.042,0.087,0.105,0.156,0.189,0.207s0.204,0.076,0.359,0.076c0.103,0,0.207-0.012,0.315-0.036c0.107-0.024,0.21-0.06,0.306-0.108
		l0.027,0.64c-0.12,0.054-0.254,0.093-0.4,0.116c-0.147,0.024-0.287,0.037-0.419,0.037c-0.252,0-0.453-0.033-0.603-0.1
		c-0.15-0.066-0.268-0.158-0.352-0.279c-0.084-0.119-0.14-0.268-0.166-0.445c-0.027-0.177-0.041-0.373-0.041-0.59v-2.312h-0.918
		v-0.594h0.918v-1.197h0.702v1.197h1.242V70.803z"/>
	<path fill="#F15A29" d="M148.474,67.617h0.702v3.177h0.018c0.048-0.084,0.114-0.167,0.198-0.248s0.185-0.154,0.302-0.221
		c0.116-0.066,0.247-0.12,0.391-0.162c0.145-0.042,0.298-0.063,0.459-0.063c0.276,0,0.515,0.042,0.716,0.126s0.367,0.201,0.5,0.351
		c0.132,0.15,0.229,0.332,0.292,0.544c0.063,0.213,0.095,0.445,0.095,0.697v2.601h-0.702v-2.529c0-0.354-0.078-0.633-0.234-0.837
		c-0.155-0.204-0.398-0.306-0.729-0.306c-0.229,0-0.425,0.039-0.59,0.117c-0.165,0.078-0.3,0.189-0.404,0.333
		c-0.105,0.144-0.184,0.315-0.234,0.513c-0.051,0.198-0.076,0.417-0.076,0.657v2.052h-0.702V67.617z"/>
	<path fill="#F15A29" d="M157.24,73.656c-0.253,0.324-0.528,0.551-0.828,0.68c-0.301,0.129-0.648,0.193-1.044,0.193
		c-0.33,0-0.628-0.059-0.892-0.176s-0.487-0.274-0.67-0.473c-0.184-0.197-0.324-0.432-0.424-0.702
		c-0.099-0.27-0.148-0.558-0.148-0.864c0-0.324,0.055-0.623,0.162-0.896c0.108-0.273,0.258-0.507,0.45-0.702
		c0.192-0.195,0.42-0.346,0.685-0.455c0.264-0.108,0.552-0.162,0.863-0.162c0.294,0,0.564,0.049,0.811,0.148
		s0.457,0.243,0.634,0.432c0.178,0.189,0.313,0.42,0.41,0.693c0.096,0.273,0.144,0.583,0.144,0.931v0.225h-3.401
		c0.012,0.18,0.055,0.353,0.13,0.518c0.075,0.164,0.173,0.309,0.293,0.432s0.261,0.221,0.423,0.293
		c0.162,0.071,0.339,0.107,0.531,0.107c0.306,0,0.563-0.055,0.773-0.162s0.399-0.267,0.567-0.477L157.24,73.656z M156.637,71.937
		c-0.012-0.36-0.129-0.648-0.351-0.864c-0.223-0.216-0.528-0.324-0.918-0.324c-0.391,0-0.705,0.108-0.945,0.324
		c-0.24,0.216-0.384,0.504-0.432,0.864H156.637z"/>
	<path fill="#F15A29" d="M158.481,71.208c0-0.192-0.006-0.372-0.018-0.54c-0.013-0.168-0.019-0.321-0.019-0.459h0.666
		c0,0.114,0.003,0.228,0.01,0.342c0.006,0.114,0.009,0.231,0.009,0.351h0.018c0.048-0.102,0.115-0.201,0.203-0.297
		c0.087-0.096,0.19-0.182,0.311-0.256c0.119-0.075,0.255-0.135,0.404-0.18c0.15-0.045,0.312-0.067,0.486-0.067
		c0.048,0,0.096,0.003,0.144,0.009s0.097,0.018,0.145,0.036l-0.045,0.711c-0.12-0.036-0.246-0.054-0.378-0.054
		c-0.433,0-0.746,0.14-0.94,0.418c-0.195,0.279-0.293,0.662-0.293,1.148v2.052h-0.702V71.208z"/>
</g>
<g>
	<rect x="171.693" y="50.847" fill="#FFF5CB" stroke="#000000" stroke-miterlimit="10" width="48.923" height="42.153"/>
	<g>
		<path d="M180.083,63.066c-0.566,0.212-1.074,0.317-1.523,0.317c-0.593,0-1.138-0.159-1.636-0.476
			c-0.498-0.318-0.885-0.79-1.162-1.416c-0.277-0.627-0.415-1.336-0.415-2.127c0-0.784,0.137-1.489,0.41-2.114
			s0.659-1.099,1.157-1.421s1.047-0.483,1.646-0.483c0.449,0,0.957,0.105,1.523,0.315v0.898c-0.524-0.305-1.045-0.457-1.562-0.457
			c-0.391,0-0.748,0.134-1.071,0.4c-0.324,0.268-0.586,0.659-0.784,1.176c-0.198,0.516-0.298,1.077-0.298,1.684
			c0,0.615,0.103,1.184,0.308,1.705s0.468,0.911,0.786,1.17s0.672,0.389,1.06,0.389c0.515,0,1.035-0.151,1.562-0.454V63.066z"/>
		<path d="M183.771,63.306c-0.779,0-1.404-0.272-1.873-0.817c-0.468-0.546-0.702-1.233-0.702-2.063s0.234-1.517,0.702-2.061
			c0.469-0.544,1.094-0.815,1.873-0.815c0.777,0,1.4,0.271,1.869,0.815c0.468,0.544,0.702,1.23,0.702,2.061
			s-0.234,1.518-0.702,2.063C185.172,63.033,184.549,63.306,183.771,63.306z M183.771,62.549c0.484,0,0.869-0.188,1.156-0.566
			c0.285-0.378,0.429-0.896,0.429-1.558c0-0.657-0.144-1.175-0.429-1.553c-0.287-0.378-0.672-0.566-1.156-0.566
			c-0.486,0-0.874,0.188-1.16,0.566c-0.285,0.378-0.429,0.896-0.429,1.553c0,0.661,0.144,1.18,0.429,1.558
			C182.897,62.36,183.285,62.549,183.771,62.549z"/>
		<path d="M192.017,57.7v5.454h-0.908v-1.196c-0.293,0.449-0.618,0.786-0.977,1.011s-0.716,0.337-1.074,0.337
			c-0.319,0-0.611-0.085-0.876-0.257c-0.266-0.17-0.451-0.395-0.555-0.674c-0.104-0.277-0.156-0.82-0.156-1.628V57.7h0.908v3.159
			c0,0.524,0.025,0.87,0.076,1.037c0.05,0.168,0.143,0.306,0.277,0.413c0.136,0.107,0.281,0.161,0.438,0.161
			c0.318,0,0.662-0.15,1.027-0.451c0.367-0.302,0.67-0.682,0.911-1.141V57.7H192.017z"/>
		<path d="M193.994,63.154V57.7h0.908v1.191c0.283-0.449,0.607-0.785,0.975-1.009c0.365-0.223,0.773-0.334,1.223-0.334
			c0.328,0,0.658,0.051,0.986,0.151v1.968h-0.874v-1.245c-0.153-0.026-0.273-0.039-0.361-0.039c-0.339,0-0.671,0.134-0.996,0.4
			s-0.644,0.667-0.952,1.201v3.169H193.994z"/>
		<path d="M199.595,62.866v-0.962c0.364,0.237,0.751,0.404,1.157,0.5c0.406,0.097,0.752,0.145,1.035,0.145
			c0.459,0,0.789-0.074,0.991-0.223c0.202-0.147,0.303-0.332,0.303-0.554c0-0.146-0.048-0.271-0.142-0.376s-0.328-0.232-0.703-0.386
			l-0.312-0.127l-0.63-0.249c-0.677-0.264-1.104-0.508-1.279-0.732c-0.179-0.222-0.269-0.491-0.269-0.811
			c0-0.449,0.174-0.818,0.521-1.108s0.91-0.435,1.689-0.435c0.583,0,1.136,0.085,1.657,0.254v0.825
			c-0.6-0.215-1.164-0.322-1.692-0.322c-0.385,0-0.686,0.067-0.902,0.202c-0.217,0.136-0.325,0.304-0.325,0.506
			c0,0.195,0.094,0.352,0.283,0.469c0.186,0.117,0.488,0.252,0.909,0.405l0.616,0.225c0.563,0.205,0.959,0.428,1.186,0.669
			c0.228,0.241,0.341,0.542,0.341,0.903c0,0.472-0.182,0.86-0.544,1.165c-0.363,0.304-0.943,0.456-1.741,0.456
			C201.047,63.306,200.33,63.159,199.595,62.866z"/>
		<path d="M210.068,62.791c-0.726,0.343-1.413,0.515-2.061,0.515c-0.492,0-0.932-0.122-1.318-0.366
			c-0.387-0.243-0.697-0.593-0.93-1.046c-0.233-0.454-0.35-0.939-0.35-1.456c0-0.498,0.111-0.977,0.332-1.435
			c0.221-0.459,0.531-0.815,0.928-1.071c0.396-0.255,0.84-0.383,1.328-0.383c0.647,0,1.168,0.23,1.561,0.692
			c0.392,0.461,0.588,1.173,0.588,2.135v0.195h-3.76c0,0.379,0.079,0.725,0.236,1.038c0.158,0.312,0.365,0.548,0.623,0.704
			c0.258,0.157,0.55,0.235,0.879,0.235c0.586,0,1.233-0.195,1.943-0.587V62.791z M206.44,59.893h2.72v-0.132
			c0-0.444-0.109-0.798-0.327-1.061s-0.51-0.395-0.874-0.395c-0.367,0-0.686,0.134-0.955,0.401
			C206.736,58.975,206.548,59.37,206.44,59.893z"/>
	</g>
</g>
</svg>
