<?xml version="1.0" encoding="utf-8"?>
<!-- Generator: Adobe Illustrator 15.1.0, SVG Export Plug-In . SVG Version: 6.00 Build 0)  -->
<!DOCTYPE svg PUBLIC "-//W3C//DTD SVG 1.1//EN" "http://www.w3.org/Graphics/SVG/1.1/DTD/svg11.dtd">
<svg version="1.1" id="Layer_1" xmlns="http://www.w3.org/2000/svg" xmlns:xlink="http://www.w3.org/1999/xlink" x="0px" y="0px"
	 width="252.923px" height="143.846px" viewBox="0 0 252.923 143.846" enable-background="new 0 0 252.923 143.846"
	 xml:space="preserve">
<g>
	<g>
		<rect x="4.923" y="4.711" fill="#C4E8F1" width="243.385" height="134.827"/>
		
			<rect x="4.923" y="4.711" fill="none" stroke="#010101" stroke-width="2" stroke-miterlimit="10" width="243.385" height="134.827"/>
		<rect x="4.923" y="4.711" fill="#C4E8F1" width="243.385" height="134.827"/>
		<rect x="4.923" y="4.711" fill="#C4E8F1" width="243.385" height="134.827"/>
	</g>
	<g>
		<path fill="#010101" d="M14.993,12.048h1.5l2.88,6.66h0.024l2.904-6.66h1.464v8.496h-1.008v-7.128h-0.024l-3.048,7.128h-0.612
			l-3.048-7.128h-0.024v7.128h-1.008V12.048z"/>
		<path fill="#010101" d="M30.725,19.524c-0.336,0.432-0.704,0.734-1.104,0.906c-0.4,0.172-0.864,0.258-1.392,0.258
			c-0.44,0-0.836-0.078-1.188-0.234c-0.353-0.156-0.65-0.366-0.894-0.63c-0.244-0.264-0.432-0.576-0.564-0.936
			c-0.132-0.36-0.198-0.744-0.198-1.152c0-0.432,0.072-0.83,0.216-1.194c0.144-0.364,0.344-0.676,0.6-0.936
			c0.256-0.26,0.56-0.462,0.912-0.606s0.736-0.216,1.152-0.216c0.392,0,0.752,0.066,1.08,0.198s0.61,0.324,0.846,0.576
			c0.236,0.252,0.418,0.56,0.546,0.924c0.128,0.364,0.192,0.778,0.192,1.242v0.3h-4.536c0.016,0.24,0.074,0.47,0.174,0.69
			c0.1,0.22,0.23,0.412,0.39,0.576c0.16,0.164,0.348,0.294,0.564,0.39c0.216,0.096,0.452,0.144,0.708,0.144
			c0.408,0,0.751-0.072,1.032-0.216c0.28-0.144,0.532-0.356,0.756-0.636L30.725,19.524z M29.921,17.232
			c-0.016-0.48-0.172-0.864-0.468-1.152s-0.704-0.432-1.224-0.432c-0.521,0-0.94,0.144-1.26,0.432s-0.512,0.672-0.576,1.152H29.921z
			"/>
		<path fill="#010101" d="M32.381,16.26c0-0.256-0.008-0.496-0.024-0.72s-0.024-0.428-0.024-0.612h0.888
			c0,0.152,0.004,0.304,0.012,0.456c0.008,0.152,0.012,0.308,0.012,0.468h0.024c0.064-0.136,0.154-0.268,0.27-0.396
			c0.116-0.128,0.254-0.242,0.414-0.342c0.16-0.1,0.34-0.18,0.54-0.24c0.2-0.06,0.416-0.09,0.648-0.09
			c0.304,0,0.558,0.038,0.762,0.114c0.204,0.076,0.374,0.168,0.51,0.276s0.242,0.224,0.318,0.348
			c0.076,0.124,0.138,0.234,0.186,0.33c0.208-0.336,0.448-0.598,0.72-0.786s0.624-0.282,1.056-0.282c0.4,0,0.736,0.054,1.008,0.162
			s0.492,0.264,0.66,0.468s0.288,0.452,0.36,0.744c0.072,0.292,0.108,0.618,0.108,0.978v3.408h-0.936v-3.36
			c0-0.192-0.02-0.38-0.06-0.564s-0.112-0.348-0.216-0.492s-0.244-0.26-0.42-0.348c-0.176-0.088-0.4-0.132-0.672-0.132
			c-0.2,0-0.388,0.04-0.564,0.12c-0.176,0.08-0.33,0.192-0.462,0.336c-0.132,0.144-0.236,0.318-0.312,0.522s-0.114,0.43-0.114,0.678
			v3.24h-0.936v-3.18c0-0.624-0.084-1.066-0.252-1.326c-0.168-0.26-0.444-0.39-0.828-0.39c-0.304,0-0.566,0.052-0.786,0.156
			c-0.22,0.104-0.4,0.252-0.54,0.444c-0.14,0.192-0.244,0.42-0.312,0.684c-0.068,0.264-0.102,0.556-0.102,0.876v2.736h-0.936V16.26z
			"/>
		<path fill="#010101" d="M42.281,17.736c0-0.44,0.076-0.84,0.228-1.2c0.152-0.36,0.36-0.67,0.624-0.93
			c0.264-0.26,0.58-0.462,0.948-0.606c0.368-0.144,0.768-0.216,1.2-0.216s0.832,0.072,1.2,0.216
			c0.368,0.144,0.684,0.346,0.948,0.606c0.264,0.26,0.472,0.57,0.624,0.93c0.152,0.36,0.228,0.76,0.228,1.2s-0.076,0.84-0.228,1.2
			s-0.36,0.67-0.624,0.93c-0.264,0.26-0.58,0.462-0.948,0.606c-0.368,0.144-0.768,0.216-1.2,0.216s-0.832-0.072-1.2-0.216
			c-0.368-0.144-0.684-0.346-0.948-0.606c-0.264-0.26-0.472-0.57-0.624-0.93S42.281,18.176,42.281,17.736z M43.289,17.736
			c0,0.296,0.046,0.57,0.138,0.822s0.226,0.472,0.402,0.66c0.176,0.188,0.386,0.336,0.63,0.444c0.244,0.108,0.518,0.162,0.822,0.162
			s0.578-0.054,0.822-0.162c0.244-0.108,0.454-0.256,0.63-0.444c0.176-0.188,0.31-0.408,0.402-0.66s0.138-0.526,0.138-0.822
			c0-0.296-0.046-0.57-0.138-0.822s-0.226-0.472-0.402-0.66c-0.176-0.188-0.386-0.336-0.63-0.444
			c-0.244-0.108-0.518-0.162-0.822-0.162s-0.578,0.054-0.822,0.162c-0.244,0.108-0.454,0.256-0.63,0.444
			c-0.176,0.188-0.31,0.408-0.402,0.66S43.289,17.44,43.289,17.736z"/>
		<path fill="#010101" d="M49.733,16.26c0-0.256-0.008-0.496-0.024-0.72s-0.024-0.428-0.024-0.612h0.888
			c0,0.152,0.004,0.304,0.012,0.456c0.008,0.152,0.012,0.308,0.012,0.468h0.024c0.064-0.136,0.154-0.268,0.27-0.396
			c0.116-0.128,0.254-0.242,0.414-0.342c0.16-0.1,0.34-0.18,0.54-0.24c0.2-0.06,0.416-0.09,0.648-0.09
			c0.064,0,0.128,0.004,0.192,0.012c0.064,0.008,0.128,0.024,0.192,0.048l-0.06,0.948c-0.16-0.048-0.328-0.072-0.504-0.072
			c-0.576,0-0.994,0.186-1.254,0.558s-0.39,0.882-0.39,1.53v2.736h-0.936V16.26z"/>
		<path fill="#010101" d="M56.021,21.829c-0.096,0.24-0.194,0.458-0.294,0.654c-0.1,0.196-0.22,0.364-0.36,0.504
			s-0.308,0.248-0.504,0.324c-0.196,0.076-0.434,0.114-0.714,0.114c-0.136,0-0.278-0.008-0.426-0.024s-0.286-0.056-0.414-0.12
			l0.12-0.816c0.096,0.04,0.196,0.066,0.3,0.078c0.104,0.012,0.224,0.018,0.36,0.018c0.304,0,0.528-0.084,0.672-0.252
			s0.268-0.392,0.372-0.672l0.384-1.056l-2.328-5.652h1.092l1.74,4.404h0.024l1.668-4.404h1.02L56.021,21.829z"/>
	</g>
</g>
<g>
	<rect x="42.539" y="92.809" fill="#FFF5CB" stroke="#000000" stroke-miterlimit="10" width="48.923" height="42.153"/>
	<g>
		<path d="M45.962,105.115v-5.454h0.796v1.25c0.25-0.53,0.484-0.896,0.701-1.099s0.436-0.303,0.657-0.303
			c0.264,0,0.476,0.104,0.637,0.311c0.161,0.206,0.242,0.5,0.242,0.881v0.293c0.107-0.332,0.237-0.602,0.388-0.809
			c0.151-0.206,0.309-0.371,0.471-0.492c0.163-0.123,0.35-0.184,0.562-0.184c0.234,0,0.435,0.1,0.601,0.298s0.249,0.594,0.249,1.187
			v4.121h-0.796v-3.726c0-0.306-0.01-0.515-0.029-0.628c-0.02-0.111-0.059-0.197-0.117-0.256s-0.122-0.088-0.19-0.088
			c-0.169,0-0.351,0.129-0.544,0.389c-0.194,0.258-0.392,0.688-0.593,1.286v3.022h-0.757v-3.721c0-0.481-0.047-0.765-0.142-0.85
			s-0.18-0.127-0.255-0.127c-0.167,0-0.345,0.145-0.536,0.435c-0.191,0.29-0.374,0.661-0.546,1.113v3.149H45.962z"/>
		<path d="M56.929,105.115h-4.585v-0.835c0-0.215,0.044-0.445,0.132-0.69c0.088-0.246,0.255-0.522,0.503-0.828
			c0.247-0.306,0.509-0.601,0.785-0.884l0.517-0.527c0.104-0.107,0.332-0.356,0.682-0.747c0.351-0.391,0.583-0.69,0.695-0.898
			c0.112-0.208,0.168-0.413,0.168-0.615c0-0.325-0.13-0.577-0.39-0.754c-0.26-0.178-0.553-0.267-0.877-0.267
			c-0.186,0-0.393,0.021-0.622,0.063c-0.229,0.042-0.43,0.092-0.602,0.148c-0.172,0.058-0.452,0.174-0.839,0.35v-0.806
			c0.41-0.195,0.821-0.329,1.233-0.403c0.412-0.072,0.751-0.109,1.018-0.109c0.394,0,0.756,0.064,1.086,0.193
			c0.331,0.128,0.576,0.327,0.737,0.598s0.242,0.559,0.242,0.864c0,0.342-0.104,0.691-0.312,1.05
			c-0.208,0.358-0.598,0.818-1.17,1.382l-0.556,0.552l-0.468,0.459c-0.296,0.3-0.535,0.589-0.717,0.869
			c-0.182,0.28-0.283,0.613-0.302,1.001h3.643V105.115z"/>
	</g>
</g>
<g>
	<rect x="20.385" y="33.269" fill="#FFF5CB" stroke="#000000" stroke-miterlimit="10" width="48.923" height="42.153"/>
	<g>
		<path d="M23.809,45.576v-5.454h0.796v1.25c0.25-0.53,0.484-0.896,0.701-1.099s0.436-0.303,0.657-0.303
			c0.264,0,0.476,0.104,0.637,0.311c0.161,0.206,0.242,0.5,0.242,0.881v0.293c0.107-0.332,0.237-0.602,0.388-0.809
			c0.151-0.206,0.309-0.371,0.471-0.492c0.163-0.123,0.35-0.184,0.562-0.184c0.234,0,0.435,0.1,0.601,0.298s0.249,0.594,0.249,1.187
			v4.121h-0.796v-3.726c0-0.306-0.01-0.515-0.029-0.628c-0.02-0.111-0.059-0.197-0.117-0.256s-0.122-0.088-0.19-0.088
			c-0.169,0-0.351,0.129-0.544,0.389c-0.194,0.258-0.392,0.688-0.593,1.286v3.022h-0.757v-3.721c0-0.481-0.047-0.765-0.142-0.85
			s-0.18-0.127-0.255-0.127c-0.167,0-0.345,0.145-0.536,0.435c-0.191,0.29-0.374,0.661-0.546,1.113v3.149H23.809z"/>
		<path d="M32.236,44.819v-5.845c-0.273,0.217-0.539,0.401-0.796,0.554s-0.61,0.308-1.06,0.467v-0.82
			c0.713-0.303,1.332-0.695,1.855-1.177h0.908v6.821h1.821v0.757h-4.585v-0.757H32.236z"/>
	</g>
</g>
<g>
	<g>
		<line fill="none" stroke="#F15A29" stroke-miterlimit="10" x1="69.308" y1="58" x2="72.291" y2="58.318"/>
		
			<line fill="none" stroke="#F15A29" stroke-miterlimit="10" stroke-dasharray="5.7592,3.8395" x1="76.108" y1="58.726" x2="141.011" y2="65.652"/>
		<line fill="none" stroke="#F15A29" stroke-miterlimit="10" x1="142.92" y1="65.855" x2="145.903" y2="66.174"/>
		<g>
			<polygon fill="#F15A29" points="152.924,66.923 142.6,69.91 145.378,66.118 143.462,61.826 			"/>
		</g>
	</g>
</g>
<g>
	<g>
		<line fill="none" stroke="#F15A29" stroke-miterlimit="10" x1="91.462" y1="105.115" x2="94.452" y2="105.365"/>
		
			<line fill="none" stroke="#F15A29" stroke-miterlimit="10" stroke-dasharray="6.6295,4.4196" x1="98.856" y1="105.733" x2="140.696" y2="109.233"/>
		<line fill="none" stroke="#F15A29" stroke-miterlimit="10" x1="142.898" y1="109.417" x2="145.888" y2="109.667"/>
		<g>
			<polygon fill="#F15A29" points="152.924,110.256 142.67,113.478 145.362,109.623 143.348,105.376 			"/>
		</g>
	</g>
</g>
<g>
	<path fill="#F15A29" d="M74.145,53.688c0-0.33,0.057-0.63,0.171-0.9c0.114-0.27,0.27-0.502,0.468-0.698
		c0.198-0.195,0.435-0.346,0.711-0.455c0.276-0.108,0.576-0.162,0.9-0.162c0.324,0,0.624,0.054,0.9,0.162
		c0.276,0.108,0.513,0.26,0.711,0.455c0.198,0.195,0.354,0.428,0.468,0.698s0.171,0.57,0.171,0.9s-0.057,0.63-0.171,0.9
		s-0.27,0.502-0.468,0.698c-0.198,0.195-0.435,0.346-0.711,0.454c-0.276,0.108-0.576,0.162-0.9,0.162
		c-0.324,0-0.624-0.054-0.9-0.162c-0.276-0.108-0.513-0.259-0.711-0.454c-0.198-0.195-0.354-0.428-0.468-0.698
		C74.202,54.318,74.145,54.019,74.145,53.688z M74.901,53.688c0,0.222,0.034,0.427,0.104,0.617c0.069,0.189,0.169,0.354,0.301,0.495
		c0.132,0.141,0.29,0.252,0.473,0.333c0.183,0.081,0.388,0.122,0.616,0.122s0.434-0.041,0.617-0.122s0.34-0.192,0.473-0.333
		c0.132-0.141,0.232-0.306,0.301-0.495c0.069-0.189,0.104-0.395,0.104-0.617s-0.035-0.428-0.104-0.617s-0.169-0.354-0.301-0.495
		c-0.132-0.141-0.29-0.252-0.473-0.333c-0.183-0.081-0.389-0.122-0.617-0.122s-0.434,0.041-0.616,0.122
		c-0.183,0.081-0.341,0.192-0.473,0.333c-0.132,0.141-0.232,0.306-0.301,0.495C74.935,53.261,74.901,53.466,74.901,53.688z"/>
	<path fill="#F15A29" d="M84.252,55.794h-0.693l-1.197-3.24h-0.018l-1.062,3.24h-0.72l-1.368-4.212h0.774l0.963,3.24h0.018
		l1.089-3.24h0.738l1.107,3.24h0.018l0.954-3.24h0.756L84.252,55.794z"/>
	<path fill="#F15A29" d="M86.403,52.582c0-0.192-0.006-0.372-0.018-0.54s-0.018-0.321-0.018-0.459h0.666
		c0,0.114,0.003,0.228,0.009,0.342c0.006,0.114,0.009,0.231,0.009,0.351h0.018c0.048-0.102,0.115-0.201,0.203-0.297
		c0.087-0.096,0.19-0.182,0.311-0.256c0.12-0.075,0.255-0.135,0.405-0.18s0.312-0.067,0.486-0.067c0.276,0,0.515,0.042,0.716,0.126
		c0.201,0.084,0.367,0.201,0.5,0.351c0.132,0.15,0.229,0.332,0.292,0.544s0.094,0.445,0.094,0.697v2.601h-0.702v-2.529
		c0-0.354-0.078-0.633-0.234-0.837c-0.156-0.204-0.399-0.306-0.729-0.306c-0.228,0-0.424,0.039-0.589,0.117
		c-0.165,0.078-0.3,0.189-0.405,0.333c-0.105,0.144-0.183,0.315-0.234,0.513c-0.051,0.198-0.076,0.417-0.076,0.657v2.052h-0.702
		V52.582z"/>
</g>
<g>
	<path fill="#F15A29" d="M97.105,111.995c0-0.33,0.057-0.63,0.171-0.899c0.114-0.271,0.27-0.503,0.468-0.698
		c0.198-0.194,0.435-0.347,0.711-0.454c0.276-0.108,0.576-0.162,0.9-0.162c0.324,0,0.624,0.054,0.9,0.162
		c0.276,0.107,0.513,0.26,0.711,0.454c0.198,0.195,0.354,0.428,0.468,0.698c0.114,0.27,0.171,0.569,0.171,0.899
		s-0.057,0.63-0.171,0.899c-0.114,0.271-0.27,0.503-0.468,0.698c-0.198,0.194-0.435,0.347-0.711,0.454
		c-0.276,0.108-0.576,0.162-0.9,0.162c-0.324,0-0.624-0.054-0.9-0.162c-0.276-0.107-0.513-0.26-0.711-0.454
		c-0.198-0.195-0.354-0.428-0.468-0.698C97.162,112.625,97.105,112.325,97.105,111.995z M97.861,111.995
		c0,0.222,0.034,0.427,0.104,0.616c0.069,0.189,0.169,0.354,0.301,0.495c0.132,0.142,0.29,0.252,0.473,0.333
		c0.183,0.081,0.388,0.121,0.616,0.121s0.434-0.04,0.617-0.121s0.34-0.191,0.473-0.333c0.132-0.141,0.232-0.306,0.301-0.495
		s0.104-0.395,0.104-0.616s-0.035-0.428-0.104-0.616c-0.069-0.189-0.169-0.354-0.301-0.495c-0.132-0.142-0.29-0.253-0.473-0.333
		c-0.183-0.081-0.389-0.121-0.617-0.121s-0.434,0.04-0.616,0.121c-0.183,0.08-0.341,0.191-0.473,0.333
		c-0.132,0.141-0.232,0.306-0.301,0.495C97.896,111.567,97.861,111.773,97.861,111.995z"/>
	<path fill="#F15A29" d="M107.212,114.102h-0.693l-1.197-3.24h-0.018l-1.062,3.24h-0.72l-1.368-4.213h0.774l0.963,3.24h0.018
		l1.089-3.24h0.738l1.107,3.24h0.018l0.954-3.24h0.756L107.212,114.102z"/>
	<path fill="#F15A29" d="M109.363,110.889c0-0.192-0.006-0.373-0.018-0.541s-0.018-0.32-0.018-0.459h0.666
		c0,0.114,0.003,0.229,0.009,0.342c0.006,0.115,0.009,0.231,0.009,0.352h0.018c0.048-0.102,0.115-0.201,0.203-0.297
		c0.087-0.096,0.19-0.182,0.311-0.256c0.12-0.076,0.255-0.136,0.405-0.181s0.312-0.067,0.486-0.067c0.276,0,0.515,0.042,0.716,0.126
		c0.201,0.084,0.367,0.201,0.5,0.351c0.132,0.15,0.229,0.332,0.292,0.545s0.094,0.445,0.094,0.697v2.602h-0.702v-2.529
		c0-0.354-0.078-0.633-0.234-0.838c-0.156-0.203-0.399-0.305-0.729-0.305c-0.228,0-0.424,0.039-0.589,0.116
		c-0.165,0.078-0.3,0.188-0.405,0.333c-0.105,0.145-0.183,0.314-0.234,0.514c-0.051,0.197-0.076,0.416-0.076,0.656v2.053h-0.702
		V110.889z"/>
</g>
<g>
	<rect x="152.924" y="62.279" fill="#C7E4C2" stroke="#010101" stroke-miterlimit="10" width="86.692" height="19.691"/>
	<g>
		<path d="M176.479,74.744c-0.277,0.456-0.61,0.8-1,1.031s-0.747,0.347-1.073,0.347c-0.456,0-0.865-0.197-1.229-0.591
			c-0.363-0.394-0.545-0.991-0.545-1.792c0-0.632,0.12-1.195,0.362-1.692c0.24-0.496,0.563-0.889,0.967-1.176
			c0.404-0.289,0.905-0.433,1.502-0.433c0.172,0,0.434,0.018,0.781,0.054c0.053,0.007,0.131,0.015,0.235,0.024V68.09h0.908v7.881
			h-0.908V74.744z M176.479,73.664v-2.342c-0.323-0.085-0.623-0.127-0.899-0.127c-0.562,0-1.028,0.217-1.402,0.65
			c-0.373,0.434-0.56,1.023-0.56,1.77c0,0.541,0.103,0.949,0.306,1.225s0.436,0.413,0.697,0.413c0.283,0,0.596-0.144,0.939-0.431
			C175.902,74.536,176.209,74.149,176.479,73.664z"/>
		<path d="M181.076,76.122c-0.779,0-1.404-0.272-1.873-0.817c-0.468-0.546-0.702-1.233-0.702-2.063s0.234-1.517,0.702-2.061
			c0.469-0.544,1.094-0.815,1.873-0.815c0.777,0,1.4,0.271,1.869,0.815c0.468,0.544,0.702,1.23,0.702,2.061
			s-0.234,1.518-0.702,2.063C182.477,75.85,181.854,76.122,181.076,76.122z M181.076,75.365c0.484,0,0.869-0.188,1.156-0.566
			c0.285-0.378,0.429-0.896,0.429-1.558c0-0.657-0.144-1.175-0.429-1.553c-0.287-0.378-0.672-0.566-1.156-0.566
			c-0.486,0-0.874,0.188-1.16,0.566c-0.285,0.378-0.429,0.896-0.429,1.553c0,0.661,0.144,1.18,0.429,1.558
			C180.202,75.177,180.59,75.365,181.076,75.365z"/>
		<path d="M189.321,70.517v5.454h-0.908v-1.196c-0.293,0.449-0.618,0.786-0.977,1.011s-0.716,0.337-1.074,0.337
			c-0.319,0-0.611-0.085-0.876-0.257c-0.266-0.17-0.451-0.395-0.555-0.674c-0.104-0.277-0.156-0.82-0.156-1.628v-3.047h0.908v3.159
			c0,0.524,0.025,0.87,0.076,1.037c0.05,0.168,0.143,0.306,0.277,0.413c0.136,0.107,0.281,0.161,0.438,0.161
			c0.318,0,0.662-0.15,1.027-0.451c0.367-0.302,0.67-0.682,0.911-1.141v-3.179H189.321z"/>
		<path d="M191.675,71.743c0.28-0.456,0.614-0.8,1.001-1.031s0.744-0.347,1.069-0.347c0.456,0,0.866,0.197,1.23,0.591
			s0.547,0.991,0.547,1.792c0,0.632-0.121,1.195-0.364,1.691c-0.242,0.497-0.564,0.889-0.969,1.178
			c-0.404,0.287-0.903,0.432-1.499,0.432c-0.169,0-0.43-0.018-0.781-0.054c-0.052-0.007-0.13-0.015-0.234-0.024h-0.908V68.09h0.908
			V71.743z M191.675,72.823v2.342c0.329,0.085,0.632,0.127,0.908,0.127c0.55,0,1.013-0.216,1.39-0.647
			c0.375-0.432,0.563-1.022,0.563-1.772c0-0.544-0.103-0.953-0.308-1.227c-0.205-0.274-0.438-0.411-0.698-0.411
			c-0.283,0-0.595,0.144-0.935,0.431C192.255,71.951,191.948,72.338,191.675,72.823z"/>
		<path d="M198.301,75.971v-7.124h-1.631V68.09h2.539v7.124h1.704v0.757H198.301z"/>
		<path d="M207.373,75.607c-0.727,0.343-1.412,0.515-2.061,0.515c-0.492,0-0.932-0.122-1.318-0.366
			c-0.387-0.243-0.697-0.593-0.93-1.046c-0.233-0.454-0.35-0.939-0.35-1.456c0-0.498,0.111-0.977,0.332-1.435
			c0.221-0.459,0.531-0.815,0.928-1.071c0.396-0.255,0.84-0.383,1.328-0.383c0.648,0,1.168,0.23,1.561,0.692
			c0.392,0.461,0.588,1.173,0.588,2.135v0.195h-3.76c0,0.379,0.079,0.725,0.236,1.038c0.158,0.312,0.365,0.548,0.623,0.704
			c0.258,0.157,0.551,0.235,0.879,0.235c0.586,0,1.234-0.195,1.943-0.587V75.607z M203.745,72.709h2.72v-0.132
			c0-0.444-0.109-0.798-0.327-1.061s-0.509-0.395-0.874-0.395c-0.367,0-0.686,0.134-0.955,0.401
			C204.041,71.791,203.853,72.187,203.745,72.709z"/>
		<path d="M209.814,77.787v-9.849h3.94v0.757h-3.032v8.335h3.032v0.757H209.814z"/>
		<path d="M218.35,67.938v9.849h-3.94V77.03h3.032v-8.335h-3.032v-0.757H218.35z"/>
	</g>
</g>
<g>
	<rect x="152.733" y="100.41" fill="#C7E4C2" stroke="#010101" stroke-miterlimit="10" width="86.692" height="19.691"/>
	<g>
		<path d="M176.289,112.875c-0.277,0.455-0.61,0.799-1,1.031c-0.389,0.23-0.747,0.346-1.072,0.346c-0.457,0-0.867-0.197-1.23-0.59
			c-0.363-0.395-0.545-0.992-0.545-1.793c0-0.631,0.121-1.195,0.361-1.691c0.242-0.496,0.564-0.889,0.969-1.176
			c0.404-0.289,0.904-0.434,1.5-0.434c0.174,0,0.434,0.018,0.783,0.055c0.052,0.006,0.13,0.014,0.234,0.023v-2.426h0.908v7.881
			h-0.908V112.875z M176.289,111.795v-2.342c-0.322-0.086-0.623-0.127-0.9-0.127c-0.561,0-1.027,0.217-1.4,0.65
			c-0.374,0.434-0.561,1.023-0.561,1.77c0,0.541,0.102,0.949,0.306,1.225s0.437,0.412,0.696,0.412c0.284,0,0.598-0.143,0.939-0.43
			C175.712,112.666,176.019,112.279,176.289,111.795z"/>
		<path d="M180.887,114.252c-0.781,0-1.405-0.271-1.873-0.816c-0.469-0.547-0.703-1.234-0.703-2.064s0.234-1.516,0.703-2.061
			c0.468-0.543,1.092-0.814,1.873-0.814c0.777,0,1.399,0.271,1.867,0.814c0.469,0.545,0.703,1.23,0.703,2.061
			s-0.234,1.518-0.703,2.064C182.286,113.98,181.664,114.252,180.887,114.252z M180.887,113.496c0.484,0,0.869-0.189,1.154-0.566
			c0.287-0.379,0.43-0.896,0.43-1.559c0-0.656-0.143-1.174-0.43-1.553c-0.285-0.377-0.67-0.566-1.154-0.566
			c-0.488,0-0.875,0.189-1.16,0.566c-0.287,0.379-0.43,0.896-0.43,1.553c0,0.662,0.143,1.18,0.43,1.559
			C180.012,113.307,180.398,113.496,180.887,113.496z"/>
		<path d="M189.131,108.646v5.455h-0.908v-1.197c-0.293,0.449-0.619,0.787-0.977,1.012s-0.717,0.336-1.074,0.336
			c-0.318,0-0.611-0.084-0.877-0.256c-0.265-0.17-0.449-0.395-0.554-0.674c-0.104-0.277-0.156-0.82-0.156-1.629v-3.047h0.908v3.16
			c0,0.523,0.025,0.869,0.075,1.037c0.051,0.168,0.144,0.305,0.279,0.412c0.135,0.107,0.28,0.162,0.437,0.162
			c0.319,0,0.661-0.15,1.028-0.451c0.365-0.303,0.67-0.682,0.91-1.141v-3.18H189.131z"/>
		<path d="M191.484,109.873c0.279-0.455,0.613-0.799,1.001-1.031c0.388-0.23,0.743-0.346,1.069-0.346c0.455,0,0.865,0.197,1.23,0.59
			c0.365,0.395,0.547,0.992,0.547,1.793c0,0.631-0.121,1.195-0.363,1.691c-0.243,0.496-0.566,0.889-0.97,1.178
			c-0.403,0.287-0.903,0.432-1.499,0.432c-0.17,0-0.43-0.018-0.781-0.055c-0.053-0.006-0.131-0.014-0.234-0.023h-0.908v-7.881h0.908
			V109.873z M191.484,110.953v2.342c0.328,0.086,0.631,0.127,0.908,0.127c0.551,0,1.014-0.215,1.389-0.646
			c0.377-0.432,0.564-1.023,0.564-1.773c0-0.543-0.103-0.953-0.308-1.227s-0.438-0.41-0.698-0.41c-0.283,0-0.595,0.143-0.936,0.43
			C192.064,110.082,191.758,110.469,191.484,110.953z"/>
		<path d="M198.11,114.102v-7.125h-1.631v-0.756h2.539v7.123h1.704v0.758H198.11z"/>
		<path d="M207.183,113.738c-0.726,0.342-1.413,0.514-2.061,0.514c-0.491,0-0.931-0.121-1.318-0.365s-0.697-0.594-0.931-1.047
			c-0.232-0.453-0.349-0.939-0.349-1.455c0-0.498,0.11-0.977,0.332-1.436s0.53-0.814,0.928-1.07s0.84-0.383,1.328-0.383
			c0.647,0,1.168,0.23,1.56,0.691c0.393,0.461,0.589,1.174,0.589,2.135v0.195h-3.76c0,0.379,0.079,0.725,0.237,1.039
			c0.157,0.312,0.365,0.547,0.622,0.703c0.257,0.158,0.55,0.236,0.879,0.236c0.586,0,1.233-0.195,1.943-0.588V113.738z
			 M203.555,110.84h2.72v-0.133c0-0.443-0.108-0.797-0.327-1.061c-0.219-0.262-0.51-0.395-0.874-0.395
			c-0.368,0-0.687,0.135-0.954,0.402C203.85,109.922,203.662,110.316,203.555,110.84z"/>
		<path d="M209.624,115.918v-9.85h3.94v0.758h-3.032v8.334h3.032v0.758H209.624z"/>
		<path d="M218.159,106.068v9.85h-3.94v-0.758h3.032v-8.334h-3.032v-0.758H218.159z"/>
	</g>
</g>
</svg>
